PathFileType	4	(X/Y/Z)	6_coords_data.trc
DataRate	CameraRate	NumFrames	NumMarkers	Units	OrigDataRate	OrigDataStartFrame	OrigNumFrames
30.0	30.0	6	21	m	30.0	10	77
Frame#	Time	THUMB_TIP	THUMB_IP	THUMB_MCP	THUMB_CMC	INDEX_TIP	INDEX_DIP	INDEX_PIP	INDEX_MCP	MIDDLE_TIP	MIDDLE_DIP	MIDDLE_PIP	MIDDLE_MCP	RING_TIP	RING_DIP	RING_PIP	RING_MCP	PINKY_TIP	PINKY_DIP	PINKY_PIP	PINKY_MCP	WRIST
X1	Y1	Z1	X2	Y2	Z2	X3	Y3	Z3	X4	Y4	Z4	X5	Y5	Z5	X6	Y6	Z6	X7	Y7	Z7	X8	Y8	Z8	X9	Y9	Z9	X10	Y10	Z10	X11	Y11	Z11	X12	Y12	Z12	X13	Y13	Z13	X14	Y14	Z14	X15	Y15	Z15	X16	Y16	Z16	X17	Y17	Z17	X18	Y18	Z18	X19	Y19	Z19	X20	Y20	Z20	X21	Y21	Z21
8	0.2999999999999987	0.47350028737868843	-0.03456491692866892	-0.17208340295347482	0.4833481319814026	-0.03237341689041162	-0.15143837245548059	0.47779762399345405	-0.029896094187028877	-0.12091174910308491	0.4768125643730442	-0.026291502089816454	-0.07646035347418528	0.498203006763821	-0.011692543805783662	-0.10108352672461268	0.5158292686920511	-0.015700836894626202	-0.10220087937769762	0.5342224647583246	-0.0015635362726024171	-0.11188782433419175	0.49795777775944905	0.020520648363311467	-0.1151737579671861	0.497470967334976	-0.017706917955627732	-0.08726618417286297	0.5153581779261948	-0.015131396922141827	-0.08607690343583918	0.5368666263009162	0.0034285114530220318	-0.0925827469336084	0.503317698735488	0.03284083380293312	-0.0949349106597503	0.4996762131736384	-0.007468339886174458	-0.07346280841485181	0.5175383833608865	-0.0083796892325112	-0.0712017647242702	0.5384734292959642	0.004737077673374834	-0.07434091375431645	0.5124757020349281	0.035679770322541327	-0.07316244742896078	0.5071903431348591	-0.010174098146364607	-0.054284613127093706	0.5238748199841942	-0.013468844663964696	-0.05622700280189252	0.5406969795148739	-0.0009102791046508019	-0.05655775772138738	0.5175364095280985	0.025980548293531913	-0.050126983994313645	0.4622830810018609	-0.023011742144276925	-0.051989820119430985
9	0.33333333333333187	0.47361039182482356	-0.03469616520091279	-0.17206797277804697	0.48343010945075016	-0.03245890584517419	-0.15141445452274171	0.4778254291937909	-0.029924307142072504	-0.12090243445471796	0.4768260113503725	-0.02626643495999814	-0.07645571202129359	0.49819638720113635	-0.01160748096341635	-0.10110515557775068	0.5158124769573527	-0.015670781850698146	-0.10218356533306189	0.5342018984028837	-0.0015243721202921057	-0.11186437643741254	0.4979329003454309	0.020550173891552337	-0.11516744959425529	0.4974660088505173	-0.01766909183836307	-0.08724349669194104	0.5153546732457206	-0.015101956126009841	-0.08605795867477517	0.5368498915653928	0.003470170391550953	-0.092572654063306	0.5032869250432936	0.03286592273799538	-0.09493166725169033	0.49968171813901485	-0.007332631139764456	-0.07344673401745899	0.5175390131035119	-0.008360205785558072	-0.07119704361692192	0.5384539085477067	0.004788316329176867	-0.0743376635806765	0.5124354386259768	0.035713739385906385	-0.07316366796980694	0.5071725384437882	-0.010166320510124116	-0.054286147437654586	0.5238659892709611	-0.013413308192451345	-0.05623185308640477	0.5406749162501446	-0.0008373399598323727	-0.056573928839168786	0.5174903857860389	0.0260330505584373	-0.05014406791107401	0.4622830810018608	-0.023011742144276925	-0.051989820119430985
10	0.3666666666666651	0.47372765949693574	-0.0348886873689237	-0.17204176026457085	0.4835216917930375	-0.03258815367582868	-0.15138299756904985	0.47786669155846984	-0.02996561239146789	-0.12088769875826816	0.4768460171648895	-0.026244691902502226	-0.07644669320599595	0.49820557686145217	-0.011507954644936924	-0.1011307045136039	0.515817152646263	-0.015601129366596633	-0.10216912594723798	0.5342094300801306	-0.001452833922011454	-0.11184175226113918	0.4979167475685271	0.020581199127966854	-0.11515516102922388	0.4974739986883503	-0.017606317888424483	-0.08719926579778253	0.5153673212123531	-0.015064176836887877	-0.08603027994410156	0.5368474775168987	0.0035203569095915155	-0.09255925693581035	0.5032631345490557	0.032891453293376394	-0.09492114720267619	0.49967375030798933	-0.007232023098936224	-0.07341275497417044	0.5175296255882427	-0.008320603589312636	-0.07118055639608578	0.5384332682659999	0.004846389308953203	-0.07431870868966012	0.5123933413287765	0.03575400843633203	-0.07315161015870758	0.5071618566731196	-0.010087871415746186	-0.05429093285417591	0.5238553777329018	-0.013344999150778136	-0.05621900794200141	0.5406585919970606	-0.000761988458403029	-0.05658212129667656	0.5174454229134426	0.02608397154198261	-0.050153539512716505	0.462283081001861	-0.023011742144276925	-0.051989820119430985
11	0.39999999999999825	0.4738359824411338	-0.03513917602841543	-0.17202288710312466	0.48360060833262486	-0.032761087000054756	-0.1513589868475482	0.4779053908164874	-0.03003174846764678	-0.120880548425946	0.47684869132210383	-0.026225901457415546	-0.07644757739414032	0.49822870699784616	-0.011421900858697764	-0.10114106265377276	0.5158358220615598	-0.015538186939691334	-0.10216365154114088	0.5342113185467039	-0.0013642499062268554	-0.11183062991578518	0.49788917069569794	0.0206213334415426	-0.1151429998148083	0.49750151970353806	-0.017563957350866244	-0.0871545162053578	0.5153969205991237	-0.015019115357500001	-0.08602385002337926	0.5368447182797824	0.0035989292733235034	-0.0925637230171153	0.5032231010215591	0.03292851803352803	-0.09491106131800559	0.4996427341844464	-0.007203166668267036	-0.07331553095439014	0.517510067649196	-0.008281428626129905	-0.0711717618414332	0.5384011728776356	0.0049042338640881145	-0.07431500952946563	0.5123457127782358	0.035798488849546395	-0.0731407685396851	0.5071085755717575	-0.010072024878911678	-0.05428879150318988	0.5238079133073739	-0.013294885262236877	-0.056224066713958853	0.540610680065732	-0.0007110084283620255	-0.05657775032126933	0.5173979032804262	0.026137491099628596	-0.0501583642126876	0.462283081001861	-0.023011742144276925	-0.051989820119430985
12	0.43333333333333146	0.4739196867256499	-0.03542117034095016	-0.1719929019124634	0.483658223196452	-0.03295970108326063	-0.1513264538262462	0.4779288584931325	-0.03010443752519243	-0.12086595727562638	0.47686383974383284	-0.026204711875882247	-0.07644132587677566	0.49822382644016494	-0.01138271511411415	-0.10113426711495721	0.515837280621655	-0.015472687707626331	-0.10215326465218316	0.5342064945992855	-0.0012778659006190685	-0.11180152069725818	0.4978633873366769	0.020671723190821778	-0.11512269326360117	0.4975071169214519	-0.017551036451041613	-0.08711257822754132	0.5154003086313345	-0.01497719674901532	-0.08601301484980584	0.5368250530736204	0.003665095421244713	-0.0925593740074902	0.5031826562239116	0.03297194187877572	-0.09489299906764903	0.49961904208112906	-0.0070925196854283445	-0.07325937824973883	0.517488562182886	-0.008234923095229774	-0.07116768855425804	0.5383696696278313	0.004966020815614591	-0.07431322678091973	0.5122965225600651	0.03584492908124093	-0.07312795874976918	0.5070795898584752	-0.01001719159020531	-0.0542998068764205	0.5237823288110404	-0.013226005063958102	-0.05622906258086363	0.5405793424140735	-0.000634653488508885	-0.05658992061798401	0.5173478681530089	0.026193318718026215	-0.05015237745751672	0.462283081001861	-0.023011742144276925	-0.051989820119430985
13	0.4666666666666647	0.4739910461912791	-0.03576722572301971	-0.1719536193309053	0.48371478147088987	-0.03320422295753522	-0.15129254508399903	0.4779604336101322	-0.03019575268937602	-0.12085151048688003	0.47687369801025503	-0.026202965931933386	-0.07643567254988337	0.4982181506360204	-0.011287964339744105	-0.1011634550889619	0.5158204779578054	-0.015436499981278162	-0.10213696671583716	0.5341924122569824	-0.0012379765132133347	-0.11177459061561315	0.49784770303349835	0.020707268043063554	-0.11510692415618151	0.4975407650386534	-0.017532028583195358	-0.08706584097580822	0.5154328580296281	-0.014934272159354278	-0.0860053363955704	0.5368327420061452	0.0037363650049622166	-0.09255223059588102	0.5031560696743204	0.03300462953506711	-0.09487566620951737	0.4996265218139211	-0.007011336542223301	-0.07319240088916185	0.5175001864682206	-0.008197335674718476	-0.0711612637979333	0.5383648991479965	0.005029280340494657	-0.07430774954818026	0.5122606125613818	0.03588143348366213	-0.07311121194558257	0.5070521817795276	-0.009976486647899185	-0.054286302250412644	0.5237542798249346	-0.013184299916366826	-0.05622275646269259	0.5405472372921177	-0.0005875880659761412	-0.05658531551112994	0.5173103554955504	0.026234982483082425	-0.05014478102142045	0.462283081001861	-0.023011742144276925	-0.051989820119430985
